<svg width="10" height="6" viewBox="0 0 10 6" fill="none" xmlns="http://www.w3.org/2000/svg">
<path fill-rule="evenodd" clip-rule="evenodd" d="M5.47133 5.47133C5.34632 5.59631 5.17678 5.66652 5 5.66652C4.82322 5.66652 4.65369 5.59631 4.52867 5.47133L0.757334 1.7C0.69366 1.6385 0.642872 1.56494 0.607932 1.4836C0.572993 1.40227 0.554602 1.31479 0.553833 1.22627C0.553064 1.13775 0.569932 1.04996 0.603452 0.968031C0.636973 0.8861 0.686475 0.811665 0.74907 0.74907C0.811665 0.686474 0.8861 0.636972 0.968031 0.603452C1.04996 0.569932 1.13775 0.553064 1.22627 0.553833C1.31479 0.554602 1.40227 0.572993 1.4836 0.607933C1.56494 0.642872 1.6385 0.69366 1.7 0.757333L5 4.05733L8.3 0.757333C8.42573 0.635894 8.59414 0.568698 8.76893 0.570217C8.94373 0.571736 9.11094 0.641849 9.23455 0.765454C9.35815 0.889059 9.42826 1.05627 9.42978 1.23107C9.4313 1.40586 9.36411 1.57427 9.24267 1.7L5.47133 5.47133Z" fill="#131313"/>
</svg>
